<svg version="1.1" id="Layer_1" xmlns="http://www.w3.org/2000/svg" x="0" y="0" viewBox="0 0 88.1 28.6" xml:space="preserve"><style type="text/css">.st0{fill:#575756}.st1{fill:#fff}</style><path class="st0" d="M84.4.2l-3.6 4-.2-3.8-2.9.1-8.5 9.5.8 14.7 9-.6 8.4-9.3L86.6.3z"/><path class="st0" d="M88.1 14.7l-9.6.6-8.5 9.4 9.7-.6z"/><path class="st1" d="M88.1 14.7L87.3 0l-2.9.2.7 11.8-3.8.2L80.6.4l-2.9.1.8 14.8z"/><path class="st0" d="M74.1 15l.4-.5L74 2 72.9.8l-7.8.5-8.4 9.4.8 14.7 7.8-.5z"/><path class="st0" d="M73.7 15.5l-7.8.5-8.4 9.4 7.7-.5z"/><path class="st1" d="M68.6 12.9l-.5-8.8 4-.2.5 8.8-4 .2zm7 .5L75 2.8l-2.1-2-7.8.4.8 14.8 2.9-.2 4.9-.3 1.9-2.1z"/><path class="st0" d="M53.2 1.9L50.5 5l-5.6 6.1.8 14.9 8.7-.5 8.5-9.4h.1l-.9-14.7z"/><path class="st1" d="M59.5 4.5l.2 3-3.2.2-.2-3 3.2-.2zm3.4 11.6l-.2-2.9-5.9.3-.2-3 6.1-.3-.5-8.8-9.1.5v.3l.8 14.3 9-.4z"/><path class="st0" d="M63 16.1l-8.9.5-8.4 9.4 8.8-.5zM41.3 2.6L32.9 12l.8 14.7 8.8-.5 8.6-9.4L50.6 5l-.2-2.9z"/><path class="st0" d="M51.1 16.8l-9 .5-8.4 9.4 9-.5z"/><path class="st1" d="M51.1 16.8L50.6 8l-2.9.2-3.2.1-.2-2.9 6.3-.4-.2-2.9-6.2.4-2.9.1.1 2.9.2 3 .2 2.9 6.1-.3.2 2.9-6.2.4.2 2.9 6.1-.4z"/><path class="st0" d="M29.5 3.3l-8.4 9.3.8 14.8 8.8-.5 8.4-9.5-.6-14.6z"/><path class="st0" d="M39.2 17.4l-8.8.5-8.5 9.5 8.8-.5z"/><path class="st1" d="M35.8 5.8l.2 3-3.2.2-.2-3 3.2-.2zm3.4 11.6l-.2-2.9-5.9.3-.2-3 6-.3-.5-8.8-9 .5v.3l.8 14.3 9-.4z"/><path class="st0" d="M9.3 2.1L0 12.2l.9 16.4 14.5-.8 8.1-9.4.1.2-.5-17.2z"/><path class="st0" d="M24 18.4l-13.9.7-9.2 9.5 14.5-.8z"/><path class="st1" d="M13.3 15.6l-.5-10.3 7.1-.3.3 4.5h-1.6l-.1-2-3.3.2.3 5.4 8.3-.5-.7-11.2-13.8.7.8 17 13.9-.7-.2-3.4z"/></svg>